#define 7d8f6017d3dd46e4aa1eb05efce4e955hFK44hLwSMQfQ0gc_width 128
#define 7d8f6017d3dd46e4aa1eb05efce4e955hFK44hLwSMQfQ0gc_height 128
static char 7d8f6017d3dd46e4aa1eb05efce4e955hFK44hLwSMQfQ0gc_bits[] = {
  0x00, 0x00, 0x00, 0x00, 0x00, 0x00, 0x00, 0x00, 0x00, 0x00, 0x00, 0x00, 
  0x00, 0x00, 0x00, 0x00, 0x00, 0x00, 0x00, 0x00, 0x00, 0x00, 0x00, 0x00, 
  0x00, 0x00, 0x00, 0x00, 0x00, 0x00, 0x00, 0x00, 0x00, 0x00, 0x00, 0x00, 
  0x00, 0x00, 0x00, 0x00, 0x00, 0x00, 0x00, 0x00, 0x00, 0x00, 0x00, 0x00, 
  0x00, 0x00, 0x00, 0x00, 0x00, 0x00, 0x00, 0x00, 0x00, 0x00, 0x00, 0x00, 
  0x00, 0x00, 0x00, 0x00, 0x00, 0x00, 0x00, 0x00, 0x00, 0x00, 0x00, 0x00, 
  0x00, 0x00, 0x00, 0x00, 0x00, 0x00, 0x00, 0x00, 0x00, 0x00, 0x00, 0x00, 
  0x00, 0x00, 0x00, 0x00, 0x00, 0x00, 0x00, 0x00, 0x00, 0x00, 0x00, 0x00, 
  0x00, 0x00, 0x00, 0x00, 0x00, 0x00, 0x00, 0x00, 0x00, 0x00, 0x00, 0x00, 
  0x00, 0x00, 0x00, 0x00, 0x00, 0x00, 0x00, 0x00, 0x00, 0x00, 0x00, 0x00, 
  0x00, 0x00, 0x00, 0x00, 0x00, 0x00, 0x00, 0x00, 0x00, 0x00, 0x00, 0x00, 
  0x00, 0x00, 0x00, 0x00, 0x00, 0x00, 0x00, 0x00, 0x00, 0x00, 0x00, 0x00, 
  0x00, 0x00, 0x00, 0x00, 0x00, 0x00, 0x00, 0x00, 0x00, 0x00, 0x00, 0x00, 
  0x00, 0x00, 0x00, 0x00, 0x00, 0x00, 0x00, 0x00, 0x00, 0x00, 0x00, 0x40, 
  0x00, 0x00, 0x00, 0x00, 0x00, 0x00, 0x00, 0x00, 0x00, 0x00, 0x00, 0x00, 
  0x00, 0x00, 0x00, 0x00, 0x02, 0x00, 0x00, 0x00, 0x00, 0x00, 0x00, 0x00, 
  0x00, 0x00, 0x00, 0x00, 0x00, 0x00, 0x00, 0x80, 0x03, 0x00, 0x00, 0x00, 
  0x00, 0x00, 0x00, 0x00, 0x00, 0x00, 0x00, 0x00, 0x00, 0x00, 0x00, 0x80, 
  0x00, 0x00, 0x00, 0x00, 0x00, 0x00, 0x00, 0x00, 0x00, 0x00, 0x00, 0x00, 
  0x00, 0x00, 0x00, 0x00, 0x02, 0x00, 0x00, 0x00, 0x00, 0x00, 0x00, 0x00, 
  0x00, 0x00, 0x00, 0x00, 0x00, 0x00, 0x00, 0x40, 0x00, 0x00, 0x00, 0x00, 
  0x00, 0x00, 0x00, 0x00, 0x00, 0x00, 0x00, 0x00, 0x00, 0x00, 0x00, 0x00, 
  0x01, 0x50, 0x00, 0x00, 0x00, 0x00, 0x00, 0x00, 0x00, 0x00, 0x00, 0x00, 
  0x00, 0x00, 0x0A, 0xC0, 0x01, 0x20, 0x00, 0x00, 0x00, 0x00, 0x00, 0x00, 
  0x00, 0x00, 0x00, 0x00, 0x00, 0x00, 0x00, 0x00, 0x00, 0x44, 0x00, 0x00, 
  0x00, 0x00, 0x00, 0x00, 0x00, 0x00, 0x00, 0x00, 0x00, 0x00, 0x26, 0x00, 
  0x00, 0x10, 0x00, 0x00, 0x00, 0x00, 0x00, 0x00, 0x00, 0x00, 0x00, 0x00, 
  0x00, 0x00, 0x12, 0x00, 0x00, 0x1C, 0x00, 0x00, 0x00, 0x00, 0x00, 0x00, 
  0x00, 0x00, 0x00, 0x00, 0x00, 0x00, 0x48, 0x00, 0x00, 0x02, 0x00, 0x00, 
  0x00, 0x00, 0x00, 0x00, 0x00, 0x00, 0x00, 0x00, 0x00, 0x00, 0xA0, 0x00, 
  0x00, 0x04, 0x00, 0x00, 0x00, 0x00, 0x00, 0x00, 0x00, 0x00, 0x00, 0x00, 
  0x00, 0x00, 0x20, 0x00, 0x00, 0x11, 0x00, 0x00, 0x00, 0x00, 0x00, 0x00, 
  0x00, 0x00, 0x00, 0x00, 0x00, 0x00, 0x00, 0x00, 0x00, 0x00, 0x00, 0x00, 
  0x00, 0x00, 0x00, 0x00, 0x00, 0x00, 0x00, 0x00, 0x00, 0x00, 0x00, 0x00, 
  0x00, 0x00, 0x00, 0x00, 0x00, 0x00, 0x00, 0x00, 0x00, 0x00, 0x00, 0x00, 
  0x00, 0x00, 0x00, 0x40, 0x00, 0x00, 0x00, 0x00, 0x00, 0x00, 0x00, 0x00, 
  0x00, 0x00, 0x00, 0x00, 0x00, 0x00, 0x00, 0xA0, 0x0B, 0x00, 0x00, 0x00, 
  0x00, 0x00, 0x00, 0x00, 0x00, 0x00, 0x00, 0x00, 0x00, 0x00, 0x00, 0xA4, 
  0x16, 0x00, 0x00, 0x00, 0x00, 0x00, 0x00, 0x00, 0x00, 0x00, 0x00, 0x00, 
  0x00, 0x00, 0x00, 0x48, 0x21, 0x00, 0x00, 0x00, 0x00, 0x00, 0x00, 0x00, 
  0x00, 0x00, 0x00, 0x00, 0x00, 0x00, 0x00, 0x96, 0x9A, 0x00, 0x00, 0x00, 
  0x00, 0x00, 0x00, 0x00, 0x00, 0x00, 0x00, 0x00, 0x00, 0x00, 0x00, 0x6A, 
  0x65, 0x00, 0x00, 0x00, 0x00, 0x00, 0x00, 0x00, 0x00, 0x00, 0x00, 0x00, 
  0x00, 0x48, 0x80, 0xD4, 0xA5, 0x00, 0x16, 0x00, 0x00, 0x00, 0x00, 0x00, 
  0x00, 0x00, 0x00, 0x00, 0x00, 0x60, 0x05, 0x29, 0x5A, 0xC0, 0x20, 0x00, 
  0x00, 0x00, 0x00, 0x00, 0x00, 0x00, 0x00, 0x00, 0x00, 0x28, 0x01, 0x48, 
  0x66, 0x01, 0x69, 0x00, 0x00, 0x00, 0x00, 0x00, 0x00, 0x00, 0x00, 0x00, 
  0x00, 0x84, 0x02, 0x13, 0x91, 0x40, 0x09, 0x00, 0x00, 0x00, 0x00, 0x00, 
  0x00, 0x00, 0x00, 0x00, 0x00, 0x20, 0x00, 0xA4, 0x58, 0x01, 0x08, 0x00, 
  0x00, 0x00, 0x00, 0x00, 0x00, 0x00, 0x00, 0x00, 0x00, 0x00, 0x00, 0x82, 
  0xA6, 0x00, 0x00, 0x00, 0x00, 0x00, 0x00, 0x00, 0x00, 0x00, 0x00, 0x00, 
  0x00, 0x00, 0x00, 0x1C, 0x88, 0x00, 0x00, 0x00, 0x00, 0x00, 0x00, 0x00, 
  0x00, 0x00, 0x00, 0x00, 0x00, 0x00, 0x00, 0x61, 0x53, 0x00, 0x00, 0x00, 
  0x00, 0x00, 0x00, 0x00, 0x00, 0x00, 0x00, 0x00, 0x00, 0x00, 0x00, 0x14, 
  0x28, 0x00, 0x00, 0x00, 0x00, 0x00, 0x00, 0x00, 0x00, 0x60, 0x19, 0x28, 
  0x2A, 0x81, 0xA4, 0xC3, 0x9A, 0x59, 0x81, 0x59, 0x16, 0x48, 0x05, 0x00, 
  0x00, 0xF8, 0x3F, 0xFC, 0xFF, 0x81, 0xFF, 0x6F, 0xF0, 0xFF, 0xC1, 0xFF, 
  0x1F, 0xFC, 0x1F, 0x00, 0x00, 0xFE, 0x3F, 0xF8, 0xFF, 0x83, 0xFF, 0x1F, 
  0xFD, 0xFF, 0xC1, 0xFF, 0x1F, 0xFC, 0x7F, 0x00, 0x00, 0xFE, 0x3F, 0xF8, 
  0xFF, 0xC1, 0xFF, 0x1F, 0xFC, 0xFD, 0xC3, 0xFF, 0x1F, 0xFC, 0x7F, 0x00, 
  0x00, 0xFF, 0x3F, 0xF8, 0xFF, 0x83, 0xBF, 0x3C, 0x78, 0xFE, 0x81, 0xFF, 
  0x1F, 0xF8, 0xFF, 0x00, 0x00, 0xFF, 0x3F, 0xFC, 0xFF, 0xC3, 0x1F, 0x1D, 
  0x38, 0xF8, 0xC1, 0xFF, 0x3F, 0xFC, 0xFF, 0x00, 0x00, 0xFF, 0x1F, 0xF8, 
  0xFF, 0x83, 0x5F, 0x3C, 0x7C, 0xF1, 0xC3, 0xFE, 0x1F, 0xFC, 0xFF, 0x01, 
  0x80, 0xFF, 0x3F, 0xF8, 0xFF, 0xC3, 0x8F, 0x1E, 0x78, 0xF5, 0xC3, 0xFF, 
  0x3F, 0xFC, 0xFF, 0x00, 0x00, 0xFF, 0x3F, 0xFC, 0xFF, 0x83, 0x23, 0xBE, 
  0x7D, 0xE1, 0xC1, 0xFF, 0x1F, 0xFC, 0xFF, 0x01, 0x00, 0xFF, 0x3B, 0xFC, 
  0xFF, 0x81, 0x5B, 0x1F, 0xFE, 0xCC, 0xC3, 0xFF, 0x1F, 0xFC, 0xFF, 0x00, 
  0x80, 0xFF, 0x3F, 0xF8, 0xFF, 0xC3, 0xC3, 0x7F, 0xF8, 0xF1, 0x81, 0xFF, 
  0x1F, 0xF8, 0xFF, 0x00, 0x00, 0xFF, 0x3F, 0xF8, 0xFD, 0x83, 0xE7, 0xBF, 
  0xF9, 0xE5, 0xC3, 0xFF, 0x1F, 0xFC, 0xFD, 0x00, 0x00, 0xFF, 0x1F, 0xF8, 
  0xFF, 0xC3, 0xFF, 0x3F, 0xFD, 0xF7, 0x81, 0xFF, 0x3F, 0xFC, 0xFF, 0x00, 
  0x00, 0xFF, 0x3F, 0xF8, 0xFF, 0xC1, 0xFF, 0x7F, 0xFC, 0xFF, 0xC3, 0xFB, 
  0x1F, 0xB8, 0xFF, 0x00, 0x00, 0xFE, 0x3F, 0xF8, 0xFF, 0x83, 0xFF, 0x1F, 
  0xFD, 0xFF, 0x81, 0xFF, 0x1F, 0xFC, 0xFF, 0x00, 0x00, 0xFF, 0x3F, 0xF8, 
  0xFF, 0x83, 0xFF, 0xBF, 0xFD, 0xFF, 0xC3, 0xFF, 0x1F, 0xFC, 0xFF, 0x00, 
  0x00, 0xFE, 0x1D, 0xF8, 0xFF, 0xC1, 0xFF, 0x3F, 0xFC, 0xFF, 0xC1, 0xFF, 
  0x1F, 0xFC, 0xFF, 0x00, 0x00, 0xFE, 0x3F, 0xFC, 0xFF, 0x81, 0xFF, 0x17, 
  0xF8, 0xFF, 0xC3, 0xFF, 0x3F, 0xF8, 0xFF, 0x00, 0x00, 0xFE, 0x3F, 0xF8, 
  0xFF, 0xC3, 0xF7, 0x3F, 0xF8, 0xFF, 0x81, 0xFF, 0x1F, 0xFC, 0x7F, 0x00, 
  0x00, 0x7F, 0x3F, 0x7C, 0xFF, 0x83, 0x7F, 0x1F, 0x7C, 0xFF, 0x81, 0xFF, 
  0x1F, 0xFC, 0x7E, 0x00, 0x00, 0xFE, 0x1F, 0xF8, 0xBF, 0xC1, 0xFF, 0x3F, 
  0xF8, 0xDF, 0xC3, 0xFF, 0x1F, 0xFC, 0x7F, 0x00, 0x00, 0xFE, 0x3F, 0xF8, 
  0xFF, 0x83, 0xFF, 0x3F, 0xFC, 0xFF, 0xC1, 0xFF, 0x3F, 0xFC, 0x7F, 0x00, 
  0x00, 0xE6, 0x16, 0xE8, 0xE6, 0x81, 0xE6, 0x16, 0xD8, 0xB9, 0x81, 0xE7, 
  0x1D, 0xF4, 0x7E, 0x00, 0x00, 0x00, 0x00, 0x00, 0x00, 0x00, 0x00, 0x00, 
  0x00, 0x00, 0x00, 0x00, 0x00, 0x00, 0x00, 0x00, 0x00, 0x00, 0x00, 0x00, 
  0x00, 0x00, 0x00, 0x00, 0x00, 0x00, 0x00, 0x00, 0x00, 0x00, 0x00, 0x00, 
  0x00, 0x00, 0x00, 0x00, 0x00, 0x00, 0x00, 0x00, 0x00, 0x00, 0x00, 0x00, 
  0x00, 0x00, 0x00, 0x00, 0x00, 0x00, 0x00, 0x00, 0x00, 0x00, 0x00, 0x00, 
  0x00, 0x00, 0x00, 0x00, 0x00, 0x00, 0x00, 0x00, 0x00, 0x00, 0x04, 0x00, 
  0x00, 0x80, 0x00, 0x00, 0x10, 0x00, 0x00, 0x02, 0x08, 0x00, 0x10, 0x00, 
  0x00, 0xFC, 0x1F, 0xFC, 0xFF, 0x83, 0xFF, 0x3F, 0xF8, 0xFF, 0xC1, 0xFF, 
  0x3F, 0xFC, 0x7F, 0x00, 0x00, 0x7C, 0x3F, 0x78, 0xFF, 0xC1, 0xFF, 0x1F, 
  0xF8, 0xFF, 0x83, 0xFF, 0x1F, 0xFC, 0x3F, 0x00, 0x00, 0xFC, 0x3F, 0xF8, 
  0xFF, 0x83, 0xFF, 0x3F, 0xFC, 0xFF, 0xC1, 0xFF, 0x1F, 0xFC, 0x3F, 0x00, 
  0x00, 0xFC, 0x3F, 0xF8, 0xFF, 0x81, 0xFF, 0x1F, 0xDC, 0xFF, 0x83, 0xFD, 
  0x1F, 0xFC, 0x3F, 0x00, 0x00, 0xFC, 0x1E, 0xF8, 0xFF, 0x83, 0x7F, 0x1F, 
  0xF8, 0x7F, 0xC1, 0xEF, 0x3F, 0xFC, 0x3F, 0x00, 0x00, 0xE8, 0x1F, 0xF8, 
  0xB7, 0x81, 0xFF, 0x1E, 0xF8, 0xFF, 0xC1, 0xFF, 0x1F, 0xFC, 0x3F, 0x00, 
  0x00, 0xFC, 0x3F, 0xFC, 0xFF, 0xC3, 0xFB, 0x3F, 0xF8, 0xFB, 0x83, 0xFF, 
  0x1F, 0xF8, 0x1F, 0x00, 0x00, 0xF8, 0x3F, 0xB8, 0x7F, 0x83, 0xBF, 0x3F, 
  0xDC, 0xBF, 0x81, 0xF7, 0x1F, 0xF8, 0x3F, 0x00, 0x00, 0xEC, 0x3F, 0xF8, 
  0xFF, 0x81, 0xFF, 0x1E, 0xF8, 0xFF, 0xC1, 0xFF, 0x1F, 0xFC, 0x3F, 0x00, 
  0x00, 0xF8, 0x1F, 0xF8, 0xFB, 0xC3, 0xFB, 0x1F, 0xFC, 0xFF, 0xC3, 0xBF, 
  0x1F, 0xFC, 0x1F, 0x00, 0x00, 0xF8, 0x3D, 0xF8, 0xFF, 0x83, 0xFE, 0x3F, 
  0xF8, 0xF9, 0x81, 0xFF, 0x3F, 0xFC, 0x1F, 0x00, 0x00, 0xF8, 0x1F, 0xF8, 
  0xFE, 0x81, 0xFF, 0x3E, 0xFC, 0xFF, 0xC1, 0xFF, 0x3F, 0x7C, 0x1F, 0x00, 
  0x00, 0xB8, 0x3D, 0xD8, 0xFF, 0xC3, 0xDF, 0x1F, 0xF8, 0xF7, 0x81, 0xEF, 
  0x1F, 0xFC, 0x1F, 0x00, 0x00, 0xF8, 0x1F, 0xFC, 0xEE, 0x83, 0xFF, 0x3F, 
  0x78, 0x7F, 0xC1, 0xFE, 0x1F, 0xF8, 0x1F, 0x00, 0x00, 0xF8, 0x3F, 0xF8, 
  0xFF, 0x81, 0xFE, 0x1D, 0xFC, 0xF7, 0x83, 0xFF, 0x1F, 0xFC, 0x1F, 0x00, 
  0x00, 0xB8, 0x3D, 0xFC, 0xFF, 0xC1, 0xEF, 0x1F, 0xFC, 0xFF, 0xC3, 0xFF, 
  0x1F, 0xFC, 0x0F, 0x00, 0x00, 0xF0, 0x3F, 0xF8, 0xF7, 0x83, 0xFD, 0x3F, 
  0x78, 0x7F, 0x81, 0xEE, 0x3F, 0xFC, 0x0F, 0x00, 0x00, 0xF0, 0x1F, 0x78, 
  0xFF, 0x83, 0xFF, 0x3F, 0xF8, 0xFB, 0xC1, 0xFF, 0x1F, 0xF8, 0x0F, 0x00, 
  0x00, 0xE0, 0x3F, 0xF8, 0xBF, 0xC1, 0xFF, 0x17, 0xF8, 0xFF, 0xC1, 0xFF, 
  0x1F, 0xFC, 0x07, 0x00, 0x00, 0xE0, 0x3D, 0xF8, 0xFF, 0x83, 0xFF, 0x3F, 
  0xFC, 0xFF, 0xC1, 0xFF, 0x1D, 0xFC, 0x07, 0x00, 0x00, 0x80, 0x1F, 0xF8, 
  0xFF, 0xC1, 0xFF, 0x3F, 0xF8, 0xFF, 0xC3, 0x77, 0x1F, 0xFC, 0x01, 0x00, 
  0x00, 0x00, 0x3F, 0xFC, 0xFF, 0x83, 0xFF, 0x1F, 0xF8, 0xFF, 0xC3, 0xFF, 
  0x1F, 0xFC, 0x00, 0x00, 0x00, 0x00, 0x00, 0x00, 0x80, 0x12, 0xC2, 0xFF, 
  0xFF, 0x23, 0x00, 0x92, 0x28, 0x01, 0x00, 0x00, 0x00, 0x00, 0x40, 0x89, 
  0x40, 0x48, 0xC0, 0xFF, 0xFF, 0x03, 0x44, 0x10, 0x00, 0x02, 0x00, 0x00, 
  0x00, 0x00, 0x00, 0x10, 0x02, 0x01, 0xEA, 0xFF, 0xFF, 0x67, 0x12, 0x00, 
  0x62, 0x00, 0x00, 0x00, 0x00, 0x00, 0x00, 0x00, 0x15, 0x00, 0xE4, 0xFF, 
  0xFF, 0x47, 0x04, 0x81, 0x24, 0x01, 0x00, 0x00, 0x00, 0x00, 0xA0, 0x44, 
  0x80, 0x90, 0xC0, 0xFF, 0xFF, 0x03, 0x40, 0x18, 0x02, 0x00, 0x00, 0x00, 
  0x00, 0x00, 0x00, 0x00, 0x00, 0x00, 0xC0, 0xFF, 0xFF, 0x03, 0x08, 0x00, 
  0x00, 0x00, 0x00, 0x00, 0x00, 0x00, 0x00, 0x00, 0x00, 0x00, 0xC0, 0xFF, 
  0xFF, 0x03, 0x00, 0x00, 0x00, 0x00, 0x00, 0x00, 0x00, 0x00, 0x00, 0x00, 
  0x00, 0x00, 0xC0, 0xFF, 0xFF, 0x03, 0x00, 0x00, 0x00, 0x00, 0x00, 0x00, 
  0x00, 0x00, 0x00, 0x00, 0x00, 0x40, 0xC0, 0xFF, 0xFF, 0x03, 0x00, 0x00, 
  0x00, 0x00, 0x00, 0x00, 0x00, 0x00, 0x00, 0x00, 0x00, 0x00, 0xE0, 0xFF, 
  0xFF, 0x03, 0x00, 0x00, 0x00, 0x00, 0x00, 0x00, 0x00, 0x00, 0x00, 0x00, 
  0x00, 0x00, 0xC0, 0xFF, 0xFF, 0x03, 0x00, 0x00, 0x00, 0x00, 0x00, 0x00, 
  0x00, 0x00, 0x00, 0x00, 0x00, 0x00, 0xC0, 0xFF, 0xFF, 0x03, 0x00, 0x00, 
  0x00, 0x00, 0x00, 0x00, 0x00, 0x00, 0x00, 0x00, 0x00, 0x00, 0xC0, 0xFF, 
  0xFF, 0x07, 0x00, 0x00, 0x00, 0x00, 0x00, 0x00, 0x00, 0x00, 0x00, 0x00, 
  0x00, 0x00, 0xC0, 0xFF, 0xFF, 0x03, 0x00, 0x00, 0x00, 0x00, 0x00, 0x00, 
  0x00, 0x00, 0x00, 0x00, 0x00, 0x00, 0xC0, 0xFF, 0xFF, 0x03, 0x00, 0x00, 
  0x00, 0x00, 0x00, 0x00, 0x00, 0x00, 0x00, 0x00, 0x00, 0x00, 0xC0, 0xFF, 
  0xFF, 0x03, 0x00, 0x00, 0x00, 0x00, 0x00, 0x00, 0x00, 0x00, 0x00, 0x00, 
  0x00, 0x00, 0xC0, 0xFF, 0xFF, 0x03, 0x00, 0x00, 0x00, 0x00, 0x00, 0x00, 
  0x00, 0x00, 0x00, 0x00, 0x00, 0x00, 0xC0, 0xFF, 0xFF, 0x03, 0x00, 0x00, 
  0x00, 0x00, 0x00, 0x00, 0x00, 0x00, 0x00, 0x00, 0x00, 0x00, 0xC0, 0xFF, 
  0xFF, 0x03, 0x00, 0x00, 0x00, 0x00, 0x00, 0x00, 0x00, 0x00, 0x00, 0x00, 
  0x00, 0x00, 0xC0, 0xFF, 0xFF, 0x03, 0x00, 0x00, 0x00, 0x00, 0x00, 0x00, 
  0x00, 0x00, 0x00, 0x00, 0x00, 0x00, 0xC0, 0xFF, 0xFF, 0x03, 0x00, 0x00, 
  0x00, 0x00, 0x00, 0x00, 0x00, 0x00, 0x00, 0x00, 0x00, 0x00, 0xC0, 0xFF, 
  0xFF, 0x03, 0x00, 0x00, 0x00, 0x00, 0x00, 0x00, 0x00, 0x00, 0x00, 0x00, 
  0x00, 0x00, 0xFC, 0xFF, 0xFF, 0x2F, 0x00, 0x00, 0x00, 0x00, 0x00, 0x00, 
  0x00, 0x00, 0x00, 0x00, 0x00, 0x00, 0xFF, 0xFF, 0xFF, 0xFF, 0x00, 0x00, 
  0x00, 0x00, 0x00, 0x00, 0x00, 0x00, 0x00, 0x00, 0x00, 0x00, 0xFF, 0xFF, 
  0xFF, 0xFF, 0x00, 0x00, 0x00, 0x00, 0x00, 0x00, 0x00, 0x00, 0x00, 0x00, 
  0x00, 0x00, 0xFF, 0xFF, 0xFF, 0xFF, 0x00, 0x00, 0x00, 0x00, 0x00, 0x00, 
  0x00, 0x00, 0x00, 0x00, 0x00, 0x00, 0xFF, 0xFF, 0xFF, 0xFF, 0x00, 0x00, 
  0x00, 0x00, 0x00, 0x00, 0x00, 0x00, 0x00, 0x00, 0x00, 0x00, 0x9C, 0xBF, 
  0xFF, 0x6F, 0x00, 0x00, 0x00, 0x00, 0x00, 0x00, 0x00, 0x00, 0x00, 0x00, 
  0x00, 0x00, 0x00, 0x00, 0x00, 0x00, 0x00, 0x00, 0x00, 0x00, 0x00, 0x00, 
  0x00, 0x00, 0x00, 0x00, 0x00, 0x00, 0x00, 0x00, 0x00, 0x00, 0x00, 0x00, 
  0x00, 0x00, 0x00, 0x00, 0x00, 0x00, 0x00, 0x00, 0x00, 0x00, 0x00, 0x00, 
  0x00, 0x00, 0x00, 0x00, 0x00, 0x00, 0x00, 0x00, 0x00, 0x00, 0x00, 0x00, 
  0x00, 0x00, 0x00, 0x00, 0x00, 0x00, 0x00, 0x00, 0x00, 0x00, 0x00, 0x00, 
  0x00, 0x00, 0x00, 0x00, 0x00, 0x00, 0x00, 0x00, 0x00, 0x00, 0x00, 0x00, 
  0x00, 0x00, 0x00, 0x00, 0x00, 0x00, 0x00, 0x00, 0x00, 0x00, 0x00, 0x00, 
  0x00, 0x00, 0x00, 0x00, 0x00, 0x00, 0x00, 0x00, 0x00, 0x00, 0x00, 0x00, 
  0x00, 0x00, 0x00, 0x00, 0x00, 0x00, 0x00, 0x00, 0x00, 0x00, 0x00, 0x00, 
  0x00, 0x00, 0x00, 0x00, 0x00, 0x00, 0x00, 0x00, 0x00, 0x00, 0x00, 0x00, 
  0x00, 0x00, 0x00, 0x00, 0x00, 0x00, 0x00, 0x00, 0x00, 0x00, 0x00, 0x00, 
  0x00, 0x00, 0x00, 0x00, 0x00, 0x00, 0x00, 0x00, };
